<mxfile host="app.diagrams.net" modified="2024-04-17T13:46:37.908Z" agent="Mozilla/5.0 (Windows NT 10.0; Win64; x64) AppleWebKit/537.36 (KHTML, like Gecko) Chrome/123.0.0.0 Safari/537.36" etag="lJNKUWJldMkdIgUsF7Rq" version="24.2.5" type="device">
  <diagram name="Страница — 1" id="FUO7JWuamfpJN6BIOICw">
    <mxGraphModel dx="1674" dy="778" grid="1" gridSize="10" guides="1" tooltips="1" connect="1" arrows="1" fold="1" page="1" pageScale="1" pageWidth="827" pageHeight="1169" math="0" shadow="0">
      <root>
        <mxCell id="0" />
        <mxCell id="1" parent="0" />
        <mxCell id="3gl9MuMP-UTVatvzNJQC-5" style="edgeStyle=orthogonalEdgeStyle;rounded=0;orthogonalLoop=1;jettySize=auto;html=1;exitX=0.5;exitY=1;exitDx=0;exitDy=0;entryX=0.5;entryY=0;entryDx=0;entryDy=0;" edge="1" parent="1" source="3gl9MuMP-UTVatvzNJQC-1" target="3gl9MuMP-UTVatvzNJQC-2">
          <mxGeometry relative="1" as="geometry" />
        </mxCell>
        <mxCell id="3gl9MuMP-UTVatvzNJQC-1" value="Начало" style="rounded=1;whiteSpace=wrap;html=1;arcSize=50;" vertex="1" parent="1">
          <mxGeometry x="400" y="20" width="120" height="30" as="geometry" />
        </mxCell>
        <mxCell id="3gl9MuMP-UTVatvzNJQC-2" value="Выбор шифрования или расшифрования&amp;nbsp;" style="shape=parallelogram;perimeter=parallelogramPerimeter;whiteSpace=wrap;html=1;fixedSize=1;" vertex="1" parent="1">
          <mxGeometry x="330" y="60" width="260" height="60" as="geometry" />
        </mxCell>
        <mxCell id="3gl9MuMP-UTVatvzNJQC-3" value="Выбор работы с большим текстом или с поговоркой (type_text)" style="shape=parallelogram;perimeter=parallelogramPerimeter;whiteSpace=wrap;html=1;fixedSize=1;" vertex="1" parent="1">
          <mxGeometry x="295" y="130" width="330" height="60" as="geometry" />
        </mxCell>
        <mxCell id="3gl9MuMP-UTVatvzNJQC-16" value="" style="edgeStyle=orthogonalEdgeStyle;rounded=0;orthogonalLoop=1;jettySize=auto;html=1;" edge="1" parent="1" source="3gl9MuMP-UTVatvzNJQC-4" target="3gl9MuMP-UTVatvzNJQC-6">
          <mxGeometry relative="1" as="geometry" />
        </mxCell>
        <mxCell id="3gl9MuMP-UTVatvzNJQC-4" value="Ввод текста" style="shape=parallelogram;perimeter=parallelogramPerimeter;whiteSpace=wrap;html=1;fixedSize=1;" vertex="1" parent="1">
          <mxGeometry x="400" y="300" width="120" height="40" as="geometry" />
        </mxCell>
        <mxCell id="3gl9MuMP-UTVatvzNJQC-41" style="edgeStyle=orthogonalEdgeStyle;rounded=0;orthogonalLoop=1;jettySize=auto;html=1;exitX=0.5;exitY=1;exitDx=0;exitDy=0;entryX=0.5;entryY=0;entryDx=0;entryDy=0;" edge="1" parent="1" source="3gl9MuMP-UTVatvzNJQC-6" target="3gl9MuMP-UTVatvzNJQC-17">
          <mxGeometry relative="1" as="geometry" />
        </mxCell>
        <mxCell id="3gl9MuMP-UTVatvzNJQC-6" value="Ввод ключа" style="shape=parallelogram;perimeter=parallelogramPerimeter;whiteSpace=wrap;html=1;fixedSize=1;" vertex="1" parent="1">
          <mxGeometry x="400" y="360" width="120" height="30" as="geometry" />
        </mxCell>
        <mxCell id="3gl9MuMP-UTVatvzNJQC-10" value="" style="edgeStyle=orthogonalEdgeStyle;rounded=0;orthogonalLoop=1;jettySize=auto;html=1;" edge="1" parent="1" source="3gl9MuMP-UTVatvzNJQC-7" target="3gl9MuMP-UTVatvzNJQC-8">
          <mxGeometry relative="1" as="geometry" />
        </mxCell>
        <mxCell id="3gl9MuMP-UTVatvzNJQC-11" value="" style="edgeStyle=orthogonalEdgeStyle;rounded=0;orthogonalLoop=1;jettySize=auto;html=1;" edge="1" parent="1" source="3gl9MuMP-UTVatvzNJQC-7" target="3gl9MuMP-UTVatvzNJQC-9">
          <mxGeometry relative="1" as="geometry" />
        </mxCell>
        <mxCell id="3gl9MuMP-UTVatvzNJQC-7" value="type_text == 1?" style="rhombus;whiteSpace=wrap;html=1;" vertex="1" parent="1">
          <mxGeometry x="390" y="230" width="140" height="60" as="geometry" />
        </mxCell>
        <mxCell id="3gl9MuMP-UTVatvzNJQC-14" style="edgeStyle=orthogonalEdgeStyle;rounded=0;orthogonalLoop=1;jettySize=auto;html=1;" edge="1" parent="1" source="3gl9MuMP-UTVatvzNJQC-8" target="3gl9MuMP-UTVatvzNJQC-4">
          <mxGeometry relative="1" as="geometry">
            <Array as="points">
              <mxPoint x="240" y="320" />
            </Array>
          </mxGeometry>
        </mxCell>
        <mxCell id="3gl9MuMP-UTVatvzNJQC-8" value="записываем в переменную алфавита большой алфавит" style="rounded=0;whiteSpace=wrap;html=1;" vertex="1" parent="1">
          <mxGeometry x="140" y="230" width="210" height="60" as="geometry" />
        </mxCell>
        <mxCell id="3gl9MuMP-UTVatvzNJQC-15" style="edgeStyle=orthogonalEdgeStyle;rounded=0;orthogonalLoop=1;jettySize=auto;html=1;entryX=1;entryY=0.5;entryDx=0;entryDy=0;" edge="1" parent="1" source="3gl9MuMP-UTVatvzNJQC-9" target="3gl9MuMP-UTVatvzNJQC-4">
          <mxGeometry relative="1" as="geometry">
            <Array as="points">
              <mxPoint x="680" y="320" />
            </Array>
          </mxGeometry>
        </mxCell>
        <mxCell id="3gl9MuMP-UTVatvzNJQC-9" value="записываем в переменную алфавита малый алфавит" style="rounded=0;whiteSpace=wrap;html=1;" vertex="1" parent="1">
          <mxGeometry x="560" y="240" width="230" height="40" as="geometry" />
        </mxCell>
        <mxCell id="3gl9MuMP-UTVatvzNJQC-12" value="Да" style="text;html=1;align=center;verticalAlign=middle;whiteSpace=wrap;rounded=0;" vertex="1" parent="1">
          <mxGeometry x="340" y="230" width="60" height="30" as="geometry" />
        </mxCell>
        <mxCell id="3gl9MuMP-UTVatvzNJQC-13" value="Нет" style="text;html=1;align=center;verticalAlign=middle;whiteSpace=wrap;rounded=0;" vertex="1" parent="1">
          <mxGeometry x="510" y="230" width="60" height="30" as="geometry" />
        </mxCell>
        <mxCell id="3gl9MuMP-UTVatvzNJQC-37" style="edgeStyle=orthogonalEdgeStyle;rounded=0;orthogonalLoop=1;jettySize=auto;html=1;entryX=0.5;entryY=0;entryDx=0;entryDy=0;" edge="1" parent="1" source="3gl9MuMP-UTVatvzNJQC-17" target="3gl9MuMP-UTVatvzNJQC-19">
          <mxGeometry relative="1" as="geometry" />
        </mxCell>
        <mxCell id="3gl9MuMP-UTVatvzNJQC-39" style="edgeStyle=orthogonalEdgeStyle;rounded=0;orthogonalLoop=1;jettySize=auto;html=1;entryX=0.5;entryY=0;entryDx=0;entryDy=0;" edge="1" parent="1" source="3gl9MuMP-UTVatvzNJQC-17" target="3gl9MuMP-UTVatvzNJQC-29">
          <mxGeometry relative="1" as="geometry" />
        </mxCell>
        <mxCell id="3gl9MuMP-UTVatvzNJQC-17" value="mode == 1 ?" style="rhombus;whiteSpace=wrap;html=1;" vertex="1" parent="1">
          <mxGeometry x="420" y="400" width="80" height="80" as="geometry" />
        </mxCell>
        <mxCell id="3gl9MuMP-UTVatvzNJQC-46" value="" style="edgeStyle=orthogonalEdgeStyle;rounded=0;orthogonalLoop=1;jettySize=auto;html=1;" edge="1" parent="1" source="3gl9MuMP-UTVatvzNJQC-18" target="3gl9MuMP-UTVatvzNJQC-20">
          <mxGeometry relative="1" as="geometry" />
        </mxCell>
        <mxCell id="3gl9MuMP-UTVatvzNJQC-18" value="Цикл перебора номеров букв текста" style="shape=loopLimit;whiteSpace=wrap;html=1;" vertex="1" parent="1">
          <mxGeometry x="170" y="530" width="210" height="50" as="geometry" />
        </mxCell>
        <mxCell id="3gl9MuMP-UTVatvzNJQC-45" style="edgeStyle=orthogonalEdgeStyle;rounded=0;orthogonalLoop=1;jettySize=auto;html=1;exitX=0.5;exitY=1;exitDx=0;exitDy=0;entryX=0.5;entryY=0;entryDx=0;entryDy=0;" edge="1" parent="1" source="3gl9MuMP-UTVatvzNJQC-19" target="3gl9MuMP-UTVatvzNJQC-18">
          <mxGeometry relative="1" as="geometry" />
        </mxCell>
        <mxCell id="3gl9MuMP-UTVatvzNJQC-19" value="создаём строку key = ключ + текст" style="rounded=0;whiteSpace=wrap;html=1;" vertex="1" parent="1">
          <mxGeometry x="180" y="480" width="190" height="40" as="geometry" />
        </mxCell>
        <mxCell id="3gl9MuMP-UTVatvzNJQC-47" style="edgeStyle=orthogonalEdgeStyle;rounded=0;orthogonalLoop=1;jettySize=auto;html=1;exitX=0.5;exitY=1;exitDx=0;exitDy=0;entryX=0.5;entryY=0;entryDx=0;entryDy=0;" edge="1" parent="1" source="3gl9MuMP-UTVatvzNJQC-20" target="3gl9MuMP-UTVatvzNJQC-21">
          <mxGeometry relative="1" as="geometry" />
        </mxCell>
        <mxCell id="3gl9MuMP-UTVatvzNJQC-20" value="берём букву из текста" style="rounded=0;whiteSpace=wrap;html=1;" vertex="1" parent="1">
          <mxGeometry x="190" y="590" width="170" height="30" as="geometry" />
        </mxCell>
        <mxCell id="3gl9MuMP-UTVatvzNJQC-48" value="" style="edgeStyle=orthogonalEdgeStyle;rounded=0;orthogonalLoop=1;jettySize=auto;html=1;" edge="1" parent="1" source="3gl9MuMP-UTVatvzNJQC-21" target="3gl9MuMP-UTVatvzNJQC-22">
          <mxGeometry relative="1" as="geometry" />
        </mxCell>
        <mxCell id="3gl9MuMP-UTVatvzNJQC-21" value="находим индекс буквы в алфавите &lt;b&gt;ind&lt;/b&gt;" style="rounded=0;whiteSpace=wrap;html=1;" vertex="1" parent="1">
          <mxGeometry x="145" y="630" width="250" height="30" as="geometry" />
        </mxCell>
        <mxCell id="3gl9MuMP-UTVatvzNJQC-49" value="" style="edgeStyle=orthogonalEdgeStyle;rounded=0;orthogonalLoop=1;jettySize=auto;html=1;" edge="1" parent="1" source="3gl9MuMP-UTVatvzNJQC-22" target="3gl9MuMP-UTVatvzNJQC-23">
          <mxGeometry relative="1" as="geometry" />
        </mxCell>
        <mxCell id="3gl9MuMP-UTVatvzNJQC-22" value="находим индекс буквы с тем же номером из key в алфавите &lt;b&gt;dif&lt;/b&gt;" style="rounded=0;whiteSpace=wrap;html=1;" vertex="1" parent="1">
          <mxGeometry x="160" y="670" width="220" height="30" as="geometry" />
        </mxCell>
        <mxCell id="3gl9MuMP-UTVatvzNJQC-50" value="" style="edgeStyle=orthogonalEdgeStyle;rounded=0;orthogonalLoop=1;jettySize=auto;html=1;" edge="1" parent="1" source="3gl9MuMP-UTVatvzNJQC-23" target="3gl9MuMP-UTVatvzNJQC-24">
          <mxGeometry relative="1" as="geometry" />
        </mxCell>
        <mxCell id="3gl9MuMP-UTVatvzNJQC-23" value="записываем в конец результата букву с номером &lt;b&gt;ind+dif &lt;/b&gt;по модулю длинны алфавита" style="rounded=0;whiteSpace=wrap;html=1;" vertex="1" parent="1">
          <mxGeometry x="92.5" y="710" width="355" height="40" as="geometry" />
        </mxCell>
        <mxCell id="3gl9MuMP-UTVatvzNJQC-51" style="edgeStyle=orthogonalEdgeStyle;rounded=0;orthogonalLoop=1;jettySize=auto;html=1;exitX=0.5;exitY=1;exitDx=0;exitDy=0;entryX=0.5;entryY=1;entryDx=0;entryDy=0;" edge="1" parent="1" source="3gl9MuMP-UTVatvzNJQC-24" target="3gl9MuMP-UTVatvzNJQC-25">
          <mxGeometry relative="1" as="geometry" />
        </mxCell>
        <mxCell id="3gl9MuMP-UTVatvzNJQC-53" style="edgeStyle=orthogonalEdgeStyle;rounded=0;orthogonalLoop=1;jettySize=auto;html=1;entryX=0;entryY=0.75;entryDx=0;entryDy=0;" edge="1" parent="1" source="3gl9MuMP-UTVatvzNJQC-24" target="3gl9MuMP-UTVatvzNJQC-20">
          <mxGeometry relative="1" as="geometry">
            <Array as="points">
              <mxPoint x="60" y="810" />
              <mxPoint x="60" y="613" />
            </Array>
          </mxGeometry>
        </mxCell>
        <mxCell id="3gl9MuMP-UTVatvzNJQC-24" value="последняя буква из текста?" style="rhombus;whiteSpace=wrap;html=1;" vertex="1" parent="1">
          <mxGeometry x="195" y="765" width="150" height="90" as="geometry" />
        </mxCell>
        <mxCell id="3gl9MuMP-UTVatvzNJQC-68" style="edgeStyle=orthogonalEdgeStyle;rounded=0;orthogonalLoop=1;jettySize=auto;html=1;exitX=0.5;exitY=0;exitDx=0;exitDy=0;entryX=0;entryY=0.5;entryDx=0;entryDy=0;" edge="1" parent="1" source="3gl9MuMP-UTVatvzNJQC-25" target="3gl9MuMP-UTVatvzNJQC-42">
          <mxGeometry relative="1" as="geometry" />
        </mxCell>
        <mxCell id="3gl9MuMP-UTVatvzNJQC-25" value="" style="shape=loopLimit;whiteSpace=wrap;html=1;rotation=-180;" vertex="1" parent="1">
          <mxGeometry x="220" y="870" width="100" height="60" as="geometry" />
        </mxCell>
        <mxCell id="3gl9MuMP-UTVatvzNJQC-26" value="Конец цикла" style="text;html=1;align=center;verticalAlign=middle;whiteSpace=wrap;rounded=0;" vertex="1" parent="1">
          <mxGeometry x="225" y="885" width="90" height="30" as="geometry" />
        </mxCell>
        <mxCell id="3gl9MuMP-UTVatvzNJQC-58" style="edgeStyle=orthogonalEdgeStyle;rounded=0;orthogonalLoop=1;jettySize=auto;html=1;exitX=0.5;exitY=1;exitDx=0;exitDy=0;" edge="1" parent="1" source="3gl9MuMP-UTVatvzNJQC-28" target="3gl9MuMP-UTVatvzNJQC-30">
          <mxGeometry relative="1" as="geometry" />
        </mxCell>
        <mxCell id="3gl9MuMP-UTVatvzNJQC-28" value="Цикл перебора номеров букв текста" style="shape=loopLimit;whiteSpace=wrap;html=1;" vertex="1" parent="1">
          <mxGeometry x="645" y="530" width="210" height="50" as="geometry" />
        </mxCell>
        <mxCell id="3gl9MuMP-UTVatvzNJQC-56" style="edgeStyle=orthogonalEdgeStyle;rounded=0;orthogonalLoop=1;jettySize=auto;html=1;exitX=0.5;exitY=1;exitDx=0;exitDy=0;entryX=0.5;entryY=0;entryDx=0;entryDy=0;" edge="1" parent="1" source="3gl9MuMP-UTVatvzNJQC-29" target="3gl9MuMP-UTVatvzNJQC-28">
          <mxGeometry relative="1" as="geometry" />
        </mxCell>
        <mxCell id="3gl9MuMP-UTVatvzNJQC-29" value="создаём строку &lt;b&gt;res = key&lt;/b&gt;" style="rounded=0;whiteSpace=wrap;html=1;" vertex="1" parent="1">
          <mxGeometry x="652.5" y="480" width="190" height="40" as="geometry" />
        </mxCell>
        <mxCell id="3gl9MuMP-UTVatvzNJQC-59" value="" style="edgeStyle=orthogonalEdgeStyle;rounded=0;orthogonalLoop=1;jettySize=auto;html=1;" edge="1" parent="1" source="3gl9MuMP-UTVatvzNJQC-30" target="3gl9MuMP-UTVatvzNJQC-31">
          <mxGeometry relative="1" as="geometry" />
        </mxCell>
        <mxCell id="3gl9MuMP-UTVatvzNJQC-30" value="берём букву из текста" style="rounded=0;whiteSpace=wrap;html=1;" vertex="1" parent="1">
          <mxGeometry x="665" y="590" width="170" height="30" as="geometry" />
        </mxCell>
        <mxCell id="3gl9MuMP-UTVatvzNJQC-60" style="edgeStyle=orthogonalEdgeStyle;rounded=0;orthogonalLoop=1;jettySize=auto;html=1;exitX=0.5;exitY=1;exitDx=0;exitDy=0;" edge="1" parent="1" source="3gl9MuMP-UTVatvzNJQC-31" target="3gl9MuMP-UTVatvzNJQC-32">
          <mxGeometry relative="1" as="geometry" />
        </mxCell>
        <mxCell id="3gl9MuMP-UTVatvzNJQC-31" value="находим индекс буквы в алфавите &lt;b&gt;ind&lt;/b&gt;" style="rounded=0;whiteSpace=wrap;html=1;" vertex="1" parent="1">
          <mxGeometry x="625" y="630" width="250" height="30" as="geometry" />
        </mxCell>
        <mxCell id="3gl9MuMP-UTVatvzNJQC-61" value="" style="edgeStyle=orthogonalEdgeStyle;rounded=0;orthogonalLoop=1;jettySize=auto;html=1;" edge="1" parent="1" source="3gl9MuMP-UTVatvzNJQC-32" target="3gl9MuMP-UTVatvzNJQC-33">
          <mxGeometry relative="1" as="geometry" />
        </mxCell>
        <mxCell id="3gl9MuMP-UTVatvzNJQC-32" value="находим индекс последней буквы из &lt;b&gt;res&lt;/b&gt;" style="rounded=0;whiteSpace=wrap;html=1;" vertex="1" parent="1">
          <mxGeometry x="640" y="670" width="220" height="30" as="geometry" />
        </mxCell>
        <mxCell id="3gl9MuMP-UTVatvzNJQC-62" value="" style="edgeStyle=orthogonalEdgeStyle;rounded=0;orthogonalLoop=1;jettySize=auto;html=1;" edge="1" parent="1" source="3gl9MuMP-UTVatvzNJQC-33" target="3gl9MuMP-UTVatvzNJQC-34">
          <mxGeometry relative="1" as="geometry" />
        </mxCell>
        <mxCell id="3gl9MuMP-UTVatvzNJQC-33" value="записываем в конец результата букву с номером &lt;b&gt;ind-dif &lt;/b&gt;по модулю длинны алфавита" style="rounded=0;whiteSpace=wrap;html=1;" vertex="1" parent="1">
          <mxGeometry x="572.5" y="710" width="355" height="40" as="geometry" />
        </mxCell>
        <mxCell id="3gl9MuMP-UTVatvzNJQC-63" style="edgeStyle=orthogonalEdgeStyle;rounded=0;orthogonalLoop=1;jettySize=auto;html=1;entryX=0;entryY=0.75;entryDx=0;entryDy=0;" edge="1" parent="1" source="3gl9MuMP-UTVatvzNJQC-34" target="3gl9MuMP-UTVatvzNJQC-30">
          <mxGeometry relative="1" as="geometry">
            <Array as="points">
              <mxPoint x="550" y="805" />
              <mxPoint x="550" y="613" />
            </Array>
          </mxGeometry>
        </mxCell>
        <mxCell id="3gl9MuMP-UTVatvzNJQC-66" style="edgeStyle=orthogonalEdgeStyle;rounded=0;orthogonalLoop=1;jettySize=auto;html=1;" edge="1" parent="1" source="3gl9MuMP-UTVatvzNJQC-34" target="3gl9MuMP-UTVatvzNJQC-35">
          <mxGeometry relative="1" as="geometry" />
        </mxCell>
        <mxCell id="3gl9MuMP-UTVatvzNJQC-34" value="последняя буква из текста?" style="rhombus;whiteSpace=wrap;html=1;" vertex="1" parent="1">
          <mxGeometry x="675" y="760" width="150" height="90" as="geometry" />
        </mxCell>
        <mxCell id="3gl9MuMP-UTVatvzNJQC-69" style="edgeStyle=orthogonalEdgeStyle;rounded=0;orthogonalLoop=1;jettySize=auto;html=1;exitX=0.5;exitY=0;exitDx=0;exitDy=0;entryX=1;entryY=0.5;entryDx=0;entryDy=0;" edge="1" parent="1" source="3gl9MuMP-UTVatvzNJQC-35" target="3gl9MuMP-UTVatvzNJQC-42">
          <mxGeometry relative="1" as="geometry" />
        </mxCell>
        <mxCell id="3gl9MuMP-UTVatvzNJQC-35" value="" style="shape=loopLimit;whiteSpace=wrap;html=1;rotation=-180;" vertex="1" parent="1">
          <mxGeometry x="700" y="870" width="100" height="60" as="geometry" />
        </mxCell>
        <mxCell id="3gl9MuMP-UTVatvzNJQC-36" value="Конец цикла" style="text;html=1;align=center;verticalAlign=middle;whiteSpace=wrap;rounded=0;" vertex="1" parent="1">
          <mxGeometry x="705" y="885" width="90" height="30" as="geometry" />
        </mxCell>
        <mxCell id="3gl9MuMP-UTVatvzNJQC-38" value="Да" style="text;html=1;align=center;verticalAlign=middle;whiteSpace=wrap;rounded=0;" vertex="1" parent="1">
          <mxGeometry x="370" y="410" width="60" height="30" as="geometry" />
        </mxCell>
        <mxCell id="3gl9MuMP-UTVatvzNJQC-40" value="Нет" style="text;html=1;align=center;verticalAlign=middle;whiteSpace=wrap;rounded=0;" vertex="1" parent="1">
          <mxGeometry x="490" y="410" width="60" height="30" as="geometry" />
        </mxCell>
        <mxCell id="3gl9MuMP-UTVatvzNJQC-70" value="" style="edgeStyle=orthogonalEdgeStyle;rounded=0;orthogonalLoop=1;jettySize=auto;html=1;" edge="1" parent="1" source="3gl9MuMP-UTVatvzNJQC-42" target="3gl9MuMP-UTVatvzNJQC-43">
          <mxGeometry relative="1" as="geometry" />
        </mxCell>
        <mxCell id="3gl9MuMP-UTVatvzNJQC-42" value="Выводим результат" style="rounded=0;whiteSpace=wrap;html=1;" vertex="1" parent="1">
          <mxGeometry x="440" y="940" width="120" height="60" as="geometry" />
        </mxCell>
        <mxCell id="3gl9MuMP-UTVatvzNJQC-43" value="Конец" style="rounded=1;whiteSpace=wrap;html=1;arcSize=50;" vertex="1" parent="1">
          <mxGeometry x="440" y="1020" width="120" height="60" as="geometry" />
        </mxCell>
        <mxCell id="3gl9MuMP-UTVatvzNJQC-52" value="Да" style="text;html=1;align=center;verticalAlign=middle;whiteSpace=wrap;rounded=0;" vertex="1" parent="1">
          <mxGeometry x="270" y="840" width="60" height="30" as="geometry" />
        </mxCell>
        <mxCell id="3gl9MuMP-UTVatvzNJQC-54" value="Нет" style="text;html=1;align=center;verticalAlign=middle;whiteSpace=wrap;rounded=0;" vertex="1" parent="1">
          <mxGeometry x="145" y="780" width="60" height="30" as="geometry" />
        </mxCell>
        <mxCell id="3gl9MuMP-UTVatvzNJQC-64" value="Да" style="text;html=1;align=center;verticalAlign=middle;whiteSpace=wrap;rounded=0;" vertex="1" parent="1">
          <mxGeometry x="680" y="840" width="60" height="30" as="geometry" />
        </mxCell>
        <mxCell id="3gl9MuMP-UTVatvzNJQC-65" value="Нет" style="text;html=1;align=center;verticalAlign=middle;whiteSpace=wrap;rounded=0;" vertex="1" parent="1">
          <mxGeometry x="625" y="780" width="60" height="30" as="geometry" />
        </mxCell>
      </root>
    </mxGraphModel>
  </diagram>
</mxfile>
